<svg width="24" height="27" viewBox="0 0 24 27" fill="none" xmlns="http://www.w3.org/2000/svg">
<g filter="url(#filter0_d)">
<path d="M19.2727 4.83337H16.1818V4.47337C16.1818 2.18737 14.3091 0.333374 12 0.333374C9.69091 0.333374 7.81818 2.18737 7.81818 4.47337V4.83337H4.72727C4.325 4.83337 4 5.15512 4 5.55337V17.6134C4 18.0116 4.325 18.3334 4.72727 18.3334H19.2727C19.675 18.3334 20 18.0116 20 17.6134V5.55337C20 5.15512 19.675 4.83337 19.2727 4.83337ZM14.5455 4.83337H9.45455V4.47337C9.45455 3.08062 10.5932 1.95337 12 1.95337C13.4068 1.95337 14.5455 3.08062 14.5455 4.47337V4.83337Z" fill="#111111"/>
</g>
<defs>
<filter id="filter0_d" x="0" y="0.333374" width="24" height="26" filterUnits="userSpaceOnUse" color-interpolation-filters="sRGB">
<feColorMatrix type="matrix" values="0 0 0 0 0 0 0 0 0 0 0 0 0 0 0 0 0 0 0.25 0"/>
<feBlend mode="normal" in="SourceGraphic" in2="effect1_dropShadow" result="shape"/>
</filter>
</defs>
</svg>
