<svg width="127" height="49" viewBox="0 0 127 49" fill="none" xmlns="http://www.w3.org/2000/svg">
<mask id="mask0" mask-type="alpha" maskUnits="userSpaceOnUse" x="1" y="9" width="124" height="31">
<path d="M9.6 39.2C7.89333 39.2 6.25333 38.96 4.68 38.48C3.13333 37.9733 1.92 37.3467 1.04 36.6L2.32 34.36C3.2 35.0533 4.30667 35.6267 5.64 36.08C6.97333 36.5067 8.36 36.72 9.8 36.72C11.72 36.72 13.1333 36.4267 14.04 35.84C14.9733 35.2267 15.44 34.3733 15.44 33.28C15.44 32.5067 15.1867 31.9067 14.68 31.48C14.1733 31.0267 13.5333 30.6933 12.76 30.48C11.9867 30.24 10.96 30.0133 9.68 29.8C7.97333 29.48 6.6 29.16 5.56 28.84C4.52 28.4933 3.62667 27.92 2.88 27.12C2.16 26.32 1.8 25.2133 1.8 23.8C1.8 22.04 2.53333 20.6 4 19.48C5.46667 18.36 7.50667 17.8 10.12 17.8C11.48 17.8 12.84 17.9867 14.2 18.36C15.56 18.7067 16.68 19.1733 17.56 19.76L16.32 22.04C14.5867 20.84 12.52 20.24 10.12 20.24C8.30667 20.24 6.93333 20.56 6 21.2C5.09333 21.84 4.64 22.68 4.64 23.72C4.64 24.52 4.89333 25.16 5.4 25.64C5.93333 26.12 6.58667 26.48 7.36 26.72C8.13333 26.9333 9.2 27.16 10.56 27.4C12.24 27.72 13.5867 28.04 14.6 28.36C15.6133 28.68 16.48 29.2267 17.2 30C17.92 30.7733 18.28 31.84 18.28 33.2C18.28 35.04 17.5067 36.5067 15.96 37.6C14.44 38.6667 12.32 39.2 9.6 39.2ZM41.8503 29.36H24.2503C24.4103 31.5467 25.2503 33.32 26.7703 34.68C28.2903 36.0133 30.2103 36.68 32.5303 36.68C33.837 36.68 35.037 36.4533 36.1303 36C37.2236 35.52 38.1703 34.8267 38.9703 33.92L40.5703 35.76C39.637 36.88 38.4636 37.7333 37.0503 38.32C35.6636 38.9067 34.1303 39.2 32.4503 39.2C30.2903 39.2 28.3703 38.7467 26.6903 37.84C25.037 36.9067 23.7436 35.6267 22.8103 34C21.877 32.3733 21.4103 30.5333 21.4103 28.48C21.4103 26.4267 21.8503 24.5867 22.7303 22.96C23.637 21.3333 24.8636 20.0667 26.4103 19.16C27.9836 18.2533 29.7436 17.8 31.6903 17.8C33.637 17.8 35.3836 18.2533 36.9303 19.16C38.477 20.0667 39.6903 21.3333 40.5703 22.96C41.4503 24.56 41.8903 26.4 41.8903 28.48L41.8503 29.36ZM31.6903 20.24C29.6636 20.24 27.957 20.8933 26.5703 22.2C25.2103 23.48 24.437 25.16 24.2503 27.24H39.1703C38.9836 25.16 38.197 23.48 36.8103 22.2C35.4503 20.8933 33.7436 20.24 31.6903 20.24ZM55.4709 28.44L50.5109 33V39H47.6709V9.32H50.5109V29.44L63.0709 17.96H66.5909L57.5909 26.56L67.4309 39H63.9509L55.4709 28.44ZM79.4944 28.44L74.5344 33V39H71.6944V9.32H74.5344V29.44L87.0944 17.96H90.6144L81.6144 26.56L91.4544 39H87.9744L79.4944 28.44ZM95.4053 17.96H98.2453V39H95.4053V17.96ZM96.8453 13.36C96.2586 13.36 95.7653 13.16 95.3653 12.76C94.9653 12.36 94.7653 11.88 94.7653 11.32C94.7653 10.7867 94.9653 10.32 95.3653 9.92C95.7653 9.52 96.2586 9.32 96.8453 9.32C97.432 9.32 97.9253 9.52 98.3253 9.92C98.7253 10.2933 98.9253 10.7467 98.9253 11.28C98.9253 11.8667 98.7253 12.36 98.3253 12.76C97.9253 13.16 97.432 13.36 96.8453 13.36ZM124.468 29.36H106.868C107.028 31.5467 107.868 33.32 109.388 34.68C110.908 36.0133 112.828 36.68 115.148 36.68C116.454 36.68 117.654 36.4533 118.748 36C119.841 35.52 120.788 34.8267 121.588 33.92L123.188 35.76C122.254 36.88 121.081 37.7333 119.668 38.32C118.281 38.9067 116.748 39.2 115.068 39.2C112.908 39.2 110.988 38.7467 109.308 37.84C107.654 36.9067 106.361 35.6267 105.428 34C104.494 32.3733 104.028 30.5333 104.028 28.48C104.028 26.4267 104.468 24.5867 105.348 22.96C106.254 21.3333 107.481 20.0667 109.028 19.16C110.601 18.2533 112.361 17.8 114.308 17.8C116.254 17.8 118.001 18.2533 119.548 19.16C121.094 20.0667 122.308 21.3333 123.188 22.96C124.068 24.56 124.508 26.4 124.508 28.48L124.468 29.36ZM114.308 20.24C112.281 20.24 110.574 20.8933 109.188 22.2C107.828 23.48 107.054 25.16 106.868 27.24H121.788C121.601 25.16 120.814 23.48 119.428 22.2C118.068 20.8933 116.361 20.24 114.308 20.24Z" fill="black"/>
</mask>
<g mask="url(#mask0)">
<path d="M-40 -1H159V54H-40V-1Z" fill="black"/>
<path d="M-15.2144 24.7284L152 43L144.189 -17.9049C144.189 -17.9049 51.3476 27.4985 13.9116 -9.37822C-23.5245 -46.2549 -15.2144 24.7284 -15.2144 24.7284Z" fill="url(#paint0_linear)"/>
</g>
<defs>
<linearGradient id="paint0_linear" x1="68" y1="-20" x2="68" y2="43" gradientUnits="userSpaceOnUse">
<stop stop-color="#808080"/>
<stop offset="1" stop-color="white" stop-opacity="0"/>
</linearGradient>
</defs>
</svg>
